<?xml version="1.0" encoding="UTF-8"?>
<svg id="Layer_1" data-name="Layer 1" xmlns="http://www.w3.org/2000/svg" viewBox="0 0 2316.36 930.56">
  <defs>
    <style>
      .cls-1 {
        fill: #fff;
      }

      .cls-2 {
        fill: none;
        stroke: #fff;
        stroke-miterlimit: 10;
        stroke-width: 70px;
      }
    </style>
  </defs>
  <g>
    <path class="cls-1" d="M398.05,858.91h12.18v45.82c-11.32,10.12-27.46,15.27-44.1,15.27-36.55,0-63.33-25.91-63.33-61.09s26.77-61.1,63.5-61.1c18.19,0,33.98,5.84,44.62,17.33l-7.9,8.07c-10.13-9.95-22.14-14.07-36.21-14.07-29.69,0-51.48,21.11-51.48,49.77s21.79,49.77,51.31,49.77c11.5,0,22.14-2.57,31.41-9.27v-40.5Z"/>
    <path class="cls-1" d="M443.51,791.64h12.18v127.34h-12.18v-127.34Z"/>
    <path class="cls-1" d="M480.58,873.84c0-26.77,19.56-45.82,45.99-45.82s45.82,19.05,45.82,45.82-19.39,45.99-45.82,45.99-45.99-19.22-45.99-45.99ZM560.03,873.84c0-21.11-14.24-35.18-33.46-35.18s-33.64,14.07-33.64,35.18,14.42,35.18,33.64,35.18,33.46-14.07,33.46-35.18Z"/>
    <path class="cls-1" d="M688.73,873.84c0,27.29-19.22,45.99-44.96,45.99-14.93,0-27.46-6.52-34.84-18.71v17.85h-11.67v-127.34h12.18v54.23c7.55-11.67,19.91-17.85,34.32-17.85,25.74,0,44.96,18.53,44.96,45.82ZM676.55,873.84c0-21.11-14.59-35.18-33.64-35.18s-33.63,14.07-33.63,35.18,14.42,35.18,33.63,35.18,33.64-14.07,33.64-35.18Z"/>
    <path class="cls-1" d="M781.22,863.03v55.95h-11.67v-14.07c-5.49,9.27-16.13,14.93-31.06,14.93-20.42,0-32.95-10.64-32.95-26.26,0-13.9,8.92-25.57,34.84-25.57h28.66v-5.49c0-15.45-8.75-23.85-25.57-23.85-11.67,0-22.65,4.12-30.03,10.64l-5.49-9.1c9.1-7.72,22.48-12.18,36.73-12.18,23.34,0,36.55,11.67,36.55,35.01ZM769.04,891.86v-14.76h-28.32c-17.51,0-23.17,6.86-23.17,16.13,0,10.47,8.41,16.99,22.82,16.99s23.85-6.52,28.66-18.36Z"/>
    <path class="cls-1" d="M814.34,791.64h12.18v127.34h-12.18v-127.34Z"/>
    <path class="cls-1" d="M1008.43,798.84v120.13h-12.53v-55.43h-75.17v55.43h-12.7v-120.13h12.7v53.54h75.17v-53.54h12.53Z"/>
    <path class="cls-1" d="M1123.56,877.61h-75.51c1.37,18.88,15.79,31.41,35.52,31.41,10.98,0,20.76-3.95,27.63-11.84l6.86,7.89c-8.07,9.61-20.59,14.76-34.84,14.76-28.15,0-47.36-19.22-47.36-45.99s18.71-45.82,44.1-45.82,43.76,18.71,43.76,45.82c0,1.03-.17,2.4-.17,3.78ZM1048.06,868.52h64.01c-1.55-17.68-14.42-30.03-32.09-30.03s-30.38,12.36-31.92,30.03Z"/>
    <path class="cls-1" d="M1214.17,863.03v55.95h-11.67v-14.07c-5.49,9.27-16.13,14.93-31.06,14.93-20.42,0-32.95-10.64-32.95-26.26,0-13.9,8.92-25.57,34.84-25.57h28.66v-5.49c0-15.45-8.75-23.85-25.57-23.85-11.67,0-22.65,4.12-30.03,10.64l-5.49-9.1c9.1-7.72,22.48-12.18,36.73-12.18,23.34,0,36.55,11.67,36.55,35.01ZM1201.98,891.86v-14.76h-28.32c-17.51,0-23.17,6.86-23.17,16.13,0,10.47,8.41,16.99,22.82,16.99s23.85-6.52,28.66-18.36Z"/>
    <path class="cls-1" d="M1247.28,791.64h12.18v127.34h-12.18v-127.34Z"/>
    <path class="cls-1" d="M1341.32,913.48c-4.81,4.29-12.01,6.35-19.05,6.35-16.99,0-26.43-9.61-26.43-26.26v-54.57h-16.13v-10.3h16.13v-19.74h12.18v19.74h27.46v10.3h-27.46v53.89c0,10.64,5.49,16.47,15.62,16.47,4.98,0,9.95-1.54,13.39-4.63l4.29,8.75Z"/>
    <path class="cls-1" d="M1446.51,866.63v52.34h-12.18v-51.14c0-19.05-9.95-28.83-27.11-28.83-19.39,0-31.58,12.01-31.58,32.61v47.36h-12.18v-127.34h12.18v52.86c6.69-10.47,18.53-16.47,33.81-16.47,21.97,0,37.07,12.7,37.07,38.61Z"/>
    <path class="cls-1" d="M1602.5,886.88h-66.93l-14.42,32.09h-13.21l54.92-120.13h12.53l54.92,120.13h-13.38l-14.42-32.09ZM1597.86,876.58l-28.83-64.53-28.83,64.53h57.66Z"/>
    <path class="cls-1" d="M1637.67,873.84c0-26.94,19.56-45.82,46.51-45.82,15.27,0,28.14,6.01,35.35,17.85l-9.09,6.18c-6.18-9.1-15.79-13.39-26.26-13.39-19.74,0-34.15,14.07-34.15,35.18s14.42,35.18,34.15,35.18c10.47,0,20.08-4.12,26.26-13.21l9.09,6.18c-7.21,11.67-20.08,17.85-35.35,17.85-26.94,0-46.51-19.05-46.51-45.99Z"/>
    <path class="cls-1" d="M1791.94,913.48c-4.81,4.29-12.01,6.35-19.05,6.35-16.99,0-26.43-9.61-26.43-26.26v-54.57h-16.13v-10.3h16.13v-19.74h12.18v19.74h27.46v10.3h-27.46v53.89c0,10.64,5.49,16.47,15.62,16.47,4.98,0,9.95-1.54,13.39-4.63l4.29,8.75Z"/>
    <path class="cls-1" d="M1811.32,800.22c0-4.63,3.95-8.58,8.92-8.58s8.92,3.78,8.92,8.41c0,4.98-3.78,8.92-8.92,8.92s-8.92-3.95-8.92-8.75ZM1814.07,828.71h12.18v90.27h-12.18v-90.27Z"/>
    <path class="cls-1" d="M1851.14,873.84c0-26.77,19.56-45.82,45.99-45.82s45.82,19.05,45.82,45.82-19.39,45.99-45.82,45.99-45.99-19.22-45.99-45.99ZM1930.59,873.84c0-21.11-14.24-35.18-33.46-35.18s-33.64,14.07-33.64,35.18,14.42,35.18,33.64,35.18,33.46-14.07,33.46-35.18Z"/>
    <path class="cls-1" d="M2050.88,866.63v52.34h-12.18v-51.14c0-19.05-9.95-28.83-27.11-28.83-19.39,0-31.58,12.01-31.58,32.61v47.36h-12.18v-90.27h11.67v16.65c6.52-10.98,18.71-17.33,34.32-17.33,21.97,0,37.07,12.7,37.07,38.61Z"/>
  </g>
  <path class="cls-1" d="M428.82,697.97c-51.54,0-98.99-8.54-142.42-25.61-43.47-17.02-81.08-41.01-112.98-71.91-31.85-30.9-56.62-67.25-74.32-109.1-17.7-41.8-26.56-87.52-26.56-137.07s8.85-95.28,26.56-137.13c17.7-41.8,42.64-78.2,74.85-109.05,32.16-30.9,69.98-54.89,113.4-71.97,43.47-17.02,90.93-25.56,142.42-25.56s98.63,8.07,141.42,24.15c42.79,16.08,79.35,40.54,109.57,73.38l-44.36,45.36c-28.34-28.34-59.55-48.61-93.65-60.81-34.15-12.26-70.81-18.33-110.1-18.33-41.85,0-80.3,6.91-115.34,20.74-35.09,13.83-65.68,33.47-91.71,58.87-26.08,25.46-46.35,55.05-60.86,88.83-14.46,33.78-21.68,70.97-21.68,111.51s7.23,76.89,21.68,110.99c14.51,34.15,34.78,63.9,60.86,89.3,26.03,25.46,56.62,45.1,91.71,58.93,35.04,13.83,73.17,20.74,114.39,20.74,38.6,0,75.11-5.81,109.57-17.39,34.41-11.58,66.15-31.22,95.12-58.87l40.54,54.05c-32.21,28.34-69.87,49.71-112.98,64.22-43.11,14.46-88.2,21.74-135.13,21.74ZM608.37,603.32v-249.06h68.56v257.75l-68.56-8.69Z"/>
  <path class="cls-1" d="M917.75,697.01h-71.44V10.56h71.44v686.45ZM1347.36,380.23h-437.3v-63.74h437.3v63.74ZM1340.6,10.56h70.5v686.45h-70.5V10.56Z"/>
  <path class="cls-1" d="M1899.86,365.88s-43.21-51.14-105.9-40.14c-62.69,11-69.29,77.53-69.29,77.53,0,0-4.95,52.51,30.79,86.61,35.74,34.09,127.3,127.3,127.3,127.3,0,0,18.97,20.62,30.52,0,11.55-20.62,130.46-130.46,130.46-130.46,0,0,69.97-78.36,0-140.91-69.97-62.54-143.89,20.07-143.89,20.07Z"/>
  <path class="cls-2" d="M1555.47,697.01c0-881.14,688.35-866.87,688.35,0"/>
</svg>