<?xml version="1.0" encoding="UTF-8"?>
<svg id="Layer_1" data-name="Layer 1" xmlns="http://www.w3.org/2000/svg" viewBox="0 0 2695.11 938.95">
  <defs>
    <style>
      .cls-1 {
        letter-spacing: -.01em;
      }

      .cls-2 {
        fill: #231f20;
      }

      .cls-3 {
        letter-spacing: 0em;
      }

      .cls-4 {
        fill: #d37a40;
        font-family: Montserrat-Bold, Montserrat;
        font-size: 100px;
        font-weight: 700;
      }

      .cls-5 {
        letter-spacing: 0em;
      }

      .cls-6 {
        stroke-width: 29.23px;
      }

      .cls-6, .cls-7 {
        stroke: #f4a67b;
      }

      .cls-6, .cls-7, .cls-8 {
        fill: none;
        stroke-miterlimit: 10;
      }

      .cls-7, .cls-8 {
        stroke-width: 29.27px;
      }

      .cls-8 {
        stroke: #bcbcbc;
      }
    </style>
  </defs>
  <path class="cls-2" d="M1487.78,427.83c0-14.86,11.34-25.7,26.63-25.7,7.75,0,14.5,2.66,19.09,7.82l-4.67,4.52c-3.88-4.09-8.61-5.96-14.14-5.96-11.34,0-19.74,8.18-19.74,19.31s8.4,19.31,19.74,19.31c5.53,0,10.27-1.94,14.14-6.03l4.67,4.52c-4.59,5.17-11.34,7.9-19.17,7.9-15.22,0-26.56-10.84-26.56-25.7Z"/>
  <path class="cls-2" d="M1537.67,433.94c0-11.34,8.4-19.38,19.81-19.38s19.74,8.04,19.74,19.38-8.33,19.45-19.74,19.45-19.81-8.11-19.81-19.45ZM1570.26,433.94c0-8.11-5.46-13.35-12.78-13.35s-12.85,5.24-12.85,13.35,5.53,13.42,12.85,13.42,12.78-5.31,12.78-13.42Z"/>
  <path class="cls-2" d="M1622.23,414.91v38.05h-6.53v-5.74c-2.8,3.95-7.54,6.17-12.92,6.17-9.83,0-16.37-5.38-16.37-16.58v-21.89h6.89v21.1c0,7.47,3.73,11.2,10.27,11.2,7.18,0,11.77-4.45,11.77-12.63v-19.67h6.89Z"/>
  <path class="cls-2" d="M1671.47,431.06v21.89h-6.89v-21.1c0-7.47-3.73-11.13-10.27-11.13-7.32,0-12.06,4.38-12.06,12.63v19.6h-6.89v-38.05h6.6v5.74c2.8-3.88,7.68-6.1,13.71-6.1,9.26,0,15.79,5.31,15.79,16.51Z"/>
  <path class="cls-2" d="M1705.63,450.73c-2.08,1.8-5.24,2.66-8.33,2.66-7.68,0-12.06-4.24-12.06-11.92v-20.89h-6.46v-5.67h6.46v-8.33h6.89v8.33h10.91v5.67h-10.91v20.6c0,4.09,2.15,6.39,5.96,6.39,2.01,0,3.95-.65,5.38-1.8l2.15,4.95Z"/>
  <path class="cls-2" d="M1734.42,414.55v6.68c-.57-.07-1.08-.07-1.58-.07-7.39,0-11.99,4.52-11.99,12.85v18.95h-6.89v-38.05h6.6v6.39c2.44-4.45,7.18-6.75,13.85-6.75Z"/>
  <path class="cls-2" d="M1741.67,403.14c0-2.51,2.01-4.52,4.67-4.52s4.67,1.94,4.67,4.38c0,2.58-1.94,4.59-4.67,4.59s-4.67-1.94-4.67-4.45ZM1742.88,414.91h6.89v38.05h-6.89v-38.05Z"/>
  <path class="cls-2" d="M1797.15,436.23h-30.87c.86,6.68,6.25,11.13,13.78,11.13,4.45,0,8.18-1.51,10.98-4.59l3.8,4.45c-3.45,4.02-8.69,6.17-15,6.17-12.28,0-20.46-8.11-20.46-19.45s8.11-19.38,19.09-19.38,18.81,7.9,18.81,19.6c0,.57-.07,1.44-.14,2.08ZM1766.28,431.28h24.41c-.72-6.39-5.53-10.91-12.2-10.91s-11.49,4.45-12.2,10.91Z"/>
  <path class="cls-2" d="M1802.03,448.94l2.87-5.46c3.23,2.3,8.4,3.95,13.35,3.95,6.39,0,9.04-1.94,9.04-5.17,0-8.54-24.05-1.15-24.05-16.29,0-6.82,6.1-11.41,15.86-11.41,4.95,0,10.55,1.29,13.85,3.45l-2.94,5.46c-3.45-2.23-7.25-3.01-10.98-3.01-6.03,0-8.97,2.23-8.97,5.24,0,8.97,24.12,1.65,24.12,16.44,0,6.89-6.32,11.27-16.44,11.27-6.32,0-12.56-1.94-15.72-4.45Z"/>
  <path class="cls-2" d="M2137.64,402.36h7.18v50.25h-7.18v-50.25Z"/>
  <path class="cls-2" d="M2222.06,430.71v21.89h-6.89v-21.1c0-7.47-3.59-11.13-9.83-11.13-6.89,0-11.41,4.38-11.41,12.63v19.6h-6.89v-21.1c0-7.47-3.59-11.13-9.83-11.13-6.89,0-11.41,4.38-11.41,12.63v19.6h-6.89v-38.05h6.6v5.67c2.73-3.88,7.39-6.03,13.14-6.03s10.7,2.3,13.21,7.03c2.87-4.31,8.18-7.03,14.64-7.03,9.26,0,15.58,5.31,15.58,16.51Z"/>
  <path class="cls-2" d="M2274.17,433.58c0,11.7-8.11,19.45-19.24,19.45-5.38,0-10.12-2.08-13.28-6.17v19.67h-6.89v-51.97h6.6v6.03c3.09-4.24,7.97-6.39,13.57-6.39,11.13,0,19.24,7.75,19.24,19.38ZM2267.2,433.58c0-8.04-5.53-13.35-12.85-13.35s-12.78,5.31-12.78,13.35,5.53,13.42,12.78,13.42,12.85-5.31,12.85-13.42Z"/>
  <path class="cls-2" d="M2313.5,429.64v22.97h-6.53v-5.02c-2.3,3.45-6.53,5.45-12.49,5.45-8.61,0-14.07-4.59-14.07-11.2,0-6.1,3.95-11.13,15.29-11.13h10.91v-1.36c0-5.81-3.37-9.19-10.19-9.19-4.52,0-9.12,1.58-12.06,4.09l-2.87-5.17c3.95-3.16,9.62-4.88,15.72-4.88,10.41,0,16.29,5.02,16.29,15.43ZM2306.61,440.98v-5.31h-10.62c-6.82,0-8.76,2.66-8.76,5.89,0,3.8,3.16,6.17,8.4,6.17s9.26-2.37,10.98-6.75Z"/>
  <path class="cls-2" d="M2322.97,433.58c0-11.34,8.4-19.38,20.1-19.38,6.82,0,12.49,2.8,15.5,8.11l-5.24,3.37c-2.44-3.73-6.17-5.46-10.34-5.46-7.47,0-13.06,5.24-13.06,13.35s5.6,13.42,13.06,13.42c4.16,0,7.9-1.72,10.34-5.46l5.24,3.3c-3.01,5.31-8.69,8.18-15.5,8.18-11.7,0-20.1-8.11-20.1-19.45Z"/>
  <path class="cls-2" d="M2389.37,450.38c-2.08,1.8-5.24,2.66-8.33,2.66-7.68,0-12.06-4.24-12.06-11.92v-20.89h-6.46v-5.67h6.46v-8.33h6.89v8.33h10.91v5.67h-10.91v20.6c0,4.09,2.15,6.39,5.96,6.39,2.01,0,3.95-.65,5.38-1.8l2.15,4.95Z"/>
  <path class="cls-2" d="M2430.65,435.88h-30.87c.86,6.68,6.25,11.13,13.78,11.13,4.45,0,8.18-1.51,10.98-4.59l3.8,4.45c-3.45,4.02-8.69,6.17-15,6.17-12.27,0-20.46-8.11-20.46-19.45s8.11-19.38,19.09-19.38,18.81,7.9,18.81,19.6c0,.57-.07,1.44-.14,2.08ZM2399.78,430.93h24.41c-.72-6.39-5.53-10.91-12.2-10.91s-11.49,4.45-12.2,10.91Z"/>
  <path class="cls-2" d="M2476.23,399.34v53.26h-6.6v-6.03c-3.09,4.31-7.97,6.46-13.57,6.46-11.13,0-19.24-7.82-19.24-19.45s8.11-19.38,19.24-19.38c5.38,0,10.12,2.01,13.28,6.1v-20.96h6.89ZM2469.41,433.58c0-8.11-5.53-13.35-12.78-13.35s-12.85,5.24-12.85,13.35,5.53,13.42,12.85,13.42,12.78-5.31,12.78-13.42Z"/>
  <circle class="cls-8" cx="2306.93" cy="469.47" r="258.53"/>
  <circle class="cls-8" cx="1660.99" cy="469.47" r="258.53"/>
  <circle class="cls-8" cx="1015.04" cy="469.47" r="258.53"/>
  <circle class="cls-8" cx="388.18" cy="469.47" r="258.53"/>
  <path class="cls-7" d="M388.18,210.95c142.78,0,258.53,115.75,258.53,258.53s-115.75,258.53-258.53,258.53"/>
  <path class="cls-7" d="M1015.04,210.95c142.78,0,258.53,115.75,258.53,258.53s-115.75,258.53-258.53,258.53"/>
  <path class="cls-7" d="M1660.99,210.95c142.78,0,258.53,115.75,258.53,258.53s-115.75,258.53-258.53,258.53"/>
  <g>
    <path class="cls-2" d="M319.59,433.73v17.37h-7.11v-17.52l-19.96-32.73h7.68l16.08,26.49,16.15-26.49h7.11l-19.96,32.88Z"/>
    <path class="cls-2" d="M375.73,434.37h-30.87c.86,6.68,6.25,11.13,13.78,11.13,4.45,0,8.18-1.51,10.98-4.59l3.8,4.45c-3.45,4.02-8.69,6.17-15,6.17-12.27,0-20.46-8.11-20.46-19.45s8.11-19.38,19.09-19.38,18.81,7.9,18.81,19.6c0,.57-.07,1.44-.14,2.08ZM344.86,429.42h24.41c-.72-6.39-5.53-10.91-12.2-10.91s-11.49,4.45-12.2,10.91Z"/>
    <path class="cls-2" d="M414.49,428.13v22.97h-6.53v-5.02c-2.3,3.44-6.53,5.45-12.49,5.45-8.61,0-14.07-4.59-14.07-11.2,0-6.1,3.95-11.13,15.29-11.13h10.91v-1.36c0-5.82-3.37-9.19-10.19-9.19-4.52,0-9.12,1.58-12.06,4.09l-2.87-5.17c3.95-3.16,9.62-4.88,15.72-4.88,10.41,0,16.29,5.02,16.29,15.43ZM407.6,439.47v-5.31h-10.62c-6.82,0-8.76,2.66-8.76,5.89,0,3.8,3.16,6.17,8.4,6.17s9.26-2.37,10.98-6.75Z"/>
    <path class="cls-2" d="M447.72,412.7v6.68c-.57-.07-1.08-.07-1.58-.07-7.39,0-11.99,4.52-11.99,12.85v18.95h-6.89v-38.05h6.6v6.39c2.44-4.45,7.18-6.75,13.85-6.75Z"/>
    <path class="cls-2" d="M451.67,447.08l2.87-5.45c3.23,2.3,8.4,3.95,13.35,3.95,6.39,0,9.04-1.94,9.04-5.17,0-8.54-24.05-1.15-24.05-16.29,0-6.82,6.1-11.41,15.86-11.41,4.95,0,10.55,1.29,13.85,3.45l-2.94,5.45c-3.45-2.22-7.25-3.01-10.98-3.01-6.03,0-8.97,2.22-8.97,5.24,0,8.97,24.12,1.65,24.12,16.44,0,6.89-6.32,11.27-16.44,11.27-6.32,0-12.56-1.94-15.72-4.45Z"/>
    <text class="cls-4" transform="translate(328.61 554.06)"><tspan class="cls-5" x="0" y="0">5</tspan><tspan x="59" y="0">3</tspan></text>
  </g>
  <g>
    <path class="cls-2" d="M877.58,400.13h7.18v44h27.21v6.24h-34.38v-50.25Z"/>
    <path class="cls-2" d="M952.95,433.66h-30.87c.86,6.68,6.25,11.13,13.78,11.13,4.45,0,8.18-1.51,10.98-4.59l3.8,4.45c-3.45,4.02-8.69,6.17-15,6.17-12.28,0-20.46-8.11-20.46-19.45s8.11-19.38,19.09-19.38,18.81,7.9,18.81,19.6c0,.57-.07,1.44-.14,2.08ZM922.08,428.7h24.41c-.72-6.39-5.53-10.91-12.2-10.91s-11.49,4.45-12.2,10.91Z"/>
    <path class="cls-2" d="M991.71,427.41v22.97h-6.53v-5.02c-2.3,3.45-6.53,5.45-12.49,5.45-8.61,0-14.07-4.59-14.07-11.2,0-6.1,3.95-11.13,15.29-11.13h10.91v-1.36c0-5.81-3.37-9.19-10.19-9.19-4.52,0-9.12,1.58-12.06,4.09l-2.87-5.17c3.95-3.16,9.62-4.88,15.72-4.88,10.41,0,16.29,5.02,16.29,15.43ZM984.82,438.75v-5.31h-10.62c-6.82,0-8.76,2.66-8.76,5.89,0,3.8,3.16,6.17,8.4,6.17s9.26-2.37,10.98-6.75Z"/>
    <path class="cls-2" d="M1040.59,397.12v53.26h-6.6v-6.03c-3.09,4.31-7.97,6.46-13.57,6.46-11.13,0-19.24-7.82-19.24-19.45s8.11-19.38,19.24-19.38c5.38,0,10.12,2.01,13.28,6.1v-20.96h6.89ZM1033.78,431.36c0-8.11-5.53-13.35-12.78-13.35s-12.85,5.24-12.85,13.35,5.53,13.42,12.85,13.42,12.78-5.31,12.78-13.42Z"/>
    <path class="cls-2" d="M1087.9,433.66h-30.87c.86,6.68,6.25,11.13,13.78,11.13,4.45,0,8.18-1.51,10.98-4.59l3.8,4.45c-3.45,4.02-8.69,6.17-15,6.17-12.27,0-20.46-8.11-20.46-19.45s8.11-19.38,19.09-19.38,18.81,7.9,18.81,19.6c0,.57-.07,1.44-.14,2.08ZM1057.03,428.7h24.41c-.72-6.39-5.53-10.91-12.2-10.91s-11.49,4.45-12.2,10.91Z"/>
    <path class="cls-2" d="M1118.04,411.98v6.68c-.57-.07-1.08-.07-1.58-.07-7.39,0-11.99,4.52-11.99,12.85v18.95h-6.89v-38.05h6.6v6.39c2.44-4.45,7.18-6.75,13.85-6.75Z"/>
    <path class="cls-2" d="M1121.99,446.36l2.87-5.46c3.23,2.3,8.4,3.95,13.35,3.95,6.39,0,9.04-1.94,9.04-5.17,0-8.54-24.05-1.15-24.05-16.29,0-6.82,6.1-11.41,15.86-11.41,4.95,0,10.55,1.29,13.85,3.45l-2.94,5.46c-3.45-2.23-7.25-3.01-10.98-3.01-6.03,0-8.97,2.23-8.97,5.24,0,8.97,24.12,1.65,24.12,16.44,0,6.89-6.32,11.27-16.44,11.27-6.32,0-12.56-1.94-15.72-4.45Z"/>
    <text class="cls-4" transform="translate(853.18 555.39)"><tspan x="0" y="0">1</tspan><tspan class="cls-1" x="39.2" y="0">0,</tspan><tspan x="130.7" y="0">000</tspan></text>
  </g>
  <text class="cls-4" transform="translate(1602.13 555.39)"><tspan class="cls-3" x="0" y="0">9</tspan><tspan x="63.3" y="0">7</tspan></text>
  <text class="cls-4" transform="translate(2180.75 554.06)"><tspan x="0" y="0">69M+</tspan></text>
  <path class="cls-6" d="M2306.22,210.95c142.39,0,257.82,115.75,257.82,258.53s-115.43,258.53-257.82,258.53-257.82-115.75-257.82-258.53"/>
</svg>